{"title":"Quartet.2012.DVDRip.XVID.AC3.HQ.Hive-CM8","uid":8410819,"size":1181762255,"categoryP":"video","categoryS":"movies","magnet":"?xt=urn:btih:748ee9bd3defdf3ec48dee24ff6c61fe90c3bc7d&amp;dn=Quartet.2012.DVDRip.XVID.AC3.HQ.Hive-CM8&amp;tr=udp%3A%2F%2Ftracker.openbittorrent.com%3A80&amp;tr=udp%3A%2F%2Fopen.demonii.com%3A1337&amp;tr=udp%3A%2F%2Ftracker.coppersurfer.tk%3A6969&amp;tr=udp%3A%2F%2Fexodus.desync.com%3A6969","seeders":8,"leechers":1,"uploader":"xxxlavalxxx","files":4,"time":1366913825,"description":"Quartet.2012.DVDRip.XVID.AC3.HQ.Hive-CM8\n\n\n Source: DVD\n\n Video.: 720x304 @bitrate 1200 2pass\n Audio.: English AC3 5.1 @448\n Sample: Yes, included\n\n\n IMDb..: http://www.imdb.com/title/tt1441951/\n\n\n ENCODE\n retail is in a month and quality was nice,\n just colours were a bit off, which i fixed\n added sharpness,brightness,rgb and denoise\n got very nice\n enjoy\n\n\n General\n Complete name                  : Quartet.2012.DVDRip.XVID.AC3.HQ.Hive-CM8.avi\n Format                         : AVI\n Format/Info                    : Audio Video Interleave\n File size                      : 1.09 GiB\n Duration                       : 1h 34mn\n Overall bit rate               : 1 657 Kbps\n Writing application            : Nandub v1.0rc2\n Writing library                : Nandub build 1853/release\n\n Video\n ID                             : 0\n Format                         : MPEG-4 Visual\n Format profile                 : Advanced Simple@L5\n Format settings, BVOP          : 2\n Format settings, QPel          : Yes\n Format settings, GMC           : No warppoints\n Format settings, Matrix        : Default (H.263)\n Muxing mode                    : Packed bitstream\n Codec ID                       : XVID\n Codec ID/Hint                  : XviD\n Duration                       : 1h 34mn\n Bit rate                       : 1 200 Kbps\n Width                          : 720 pixels\n Height                         : 304 pixels\n Display aspect ratio           : 2.35:1\n Frame rate                     : 25.000 fps\n Color space                    : YUV\n Chroma subsampling             : 4:2:0\n Bit depth                      : 8 bits\n Scan type                      : Progressive\n Compression mode               : Lossy\n Bits/(Pixel*Frame)             : 0.219\n Stream size                    : 809 MiB (72%)\n Writing library                : XviD 1.2.1 (UTC 2008-12-04)\n\n Audio\n ID                             : 1\n Format                         : AC-3\n Format/Info                    : Audio Coding 3\n Mode extension                 : CM (complete main)\n Format settings, Endianness    : Big\n Codec ID                       : 2000\n Duration                       : 1h 34mn\n Bit rate mode                  : Constant\n Bit rate                       : 448 Kbps\n Channel(s)                     : 6 channels\n Channel positions              : Front: L C R, Side: L R, LFE\n Sampling rate                  : 48.0 KHz\n Bit depth                      : 16 bits\n Compression mode               : Lossy\n Stream size                    : 302 MiB (27%)\n Alignment                      : Split accross interleaves\n Interleave, duration           : 40 ms (1.00 video frame)\n Interleave, preload duration   : 500 ms\n\n\n PLOT\n At a home for retired musicians, the annual concert to celebrate\n Verdi's birthday is disrupted by the arrival of Jean, an eternal\n diva and the former wife of one of the residents.\n\n\n DIRECTOR\n Dustin Hoffman\n\n\n CAST\n Maggie Smith     ...     Jean Horton\n Tom Courtenay    ...     Reginald Paget\n Billy Connolly   ...     Wilf Bond\n\n\n\n\n\n    &lt;a href=&quot;\thttp://www.shotpix.com/images/20058848853757097338.png&quot; rel=&quot;nofollow&quot; target=&quot;_NEW&quot;&gt;\thttp://www.shotpix.com/images/20058848853757097338.png&lt;/a&gt;\n    &lt;a href=&quot;\thttp://www.shotpix.com/images/86192000950863166352.png&quot; rel=&quot;nofollow&quot; target=&quot;_NEW&quot;&gt;\thttp://www.shotpix.com/images/86192000950863166352.png&lt;/a&gt;\n    &lt;a href=&quot;\thttp://www.shotpix.com/images/43145099465823293525.png&quot; rel=&quot;nofollow&quot; target=&quot;_NEW&quot;&gt;\thttp://www.shotpix.com/images/43145099465823293525.png&lt;/a&gt;\n    &lt;a href=&quot;\thttp://www.shotpix.com/images/39723183794033088687.png&quot; rel=&quot;nofollow&quot; target=&quot;_NEW&quot;&gt;\thttp://www.shotpix.com/images/39723183794033088687.png&lt;/a&gt;\n    &lt;a href=&quot;\thttp://www.shotpix.com/images/78372362228606502655.png&quot; rel=&quot;nofollow&quot; target=&quot;_NEW&quot;&gt;\thttp://www.shotpix.com/images/78372362228606502655.png&lt;/a&gt;\n    &lt;a href=&quot;\thttp://www.shotpix.com/images/76790309540421498646.png&quot; rel=&quot;nofollow&quot; target=&quot;_NEW&quot;&gt;\thttp://www.shotpix.com/images/76790309540421498646.png&lt;/a&gt;","torrent":{"xt":"urn:btih:748ee9bd3defdf3ec48dee24ff6c61fe90c3bc7d","amp;dn":"Quartet.2012.DVDRip.XVID.AC3.HQ.Hive-CM8","amp;tr":["udp%3A%2F%2Ftracker.openbittorrent.com%3A80","udp%3A%2F%2Fopen.demonii.com%3A1337","udp%3A%2F%2Ftracker.coppersurfer.tk%3A6969","udp%3A%2F%2Fexodus.desync.com%3A6969"],"infoHash":"748ee9bd3defdf3ec48dee24ff6c61fe90c3bc7d","infoHashBuffer":{"type":"Buffer","data":[116,142,233,189,61,239,223,62,196,141,238,36,255,108,97,254,144,195,188,125]},"announce":[],"urlList":[]}}